<svg width="128" height="128" xmlns="http://www.w3.org/2000/svg">
 <defs>
  <linearGradient y2="0" x2="1" y1="0" x1="0" id="svg_4">
   <stop offset="0" stop-opacity="0.99609" stop-color="#00ed1b"/>
   <stop offset="1" stop-opacity="0.99609" stop-color="#156b68"/>
  </linearGradient>
  <radialGradient cy="0.20313" cx="0.85938" spreadMethod="pad" id="svg_7">
   <stop offset="0" stop-opacity="0.99609" stop-color="#00ed1b"/>
   <stop offset="1" stop-opacity="0.99219" stop-color="#0b9e96"/>
  </radialGradient>
  <linearGradient spreadMethod="pad" y2="0" x2="1" y1="0" x1="0" id="svg_8">
   <stop offset="0" stop-opacity="0.99219" stop-color="#75ea00"/>
   <stop offset="1" stop-opacity="0.99219" stop-color="#161468"/>
  </linearGradient>
 </defs>
 <g>
  <title>Layer 1</title>
  <path transform="rotate(-0.245753 64.0005 63.9776)" stroke="url(#svg_4)" stroke-width="6" stroke-linecap="round" stroke-linejoin="round" d="m26.41384,65.69213c0,0.16595 0.16594,0.16595 0.16594,0.16595c0.66378,0 2.2953,-1.18633 4.64647,-3.81675c3.44431,-3.85337 7.80971,-7.78811 11.28429,-10.9524c1.99727,-1.81891 2.18208,-2.07858 2.32324,-1.99134c0.31564,0.19508 0.74635,0.98336 0.82972,1.8254c0.24528,2.47707 -0.51387,4.52257 -1.32756,7.13565c-0.84308,2.70745 -1.54304,5.32461 -1.8254,7.13565c-0.23568,1.51168 -0.44923,2.03995 -0.33189,2.1573c0.23468,0.23468 0.5528,0.06182 1.49351,-0.82973c2.30111,-2.18088 5.01896,-4.93599 7.96538,-7.79944c1.85128,-1.79914 2.39255,-1.95012 1.4935,2.48919c-1.05454,5.20713 -2.15687,9.10931 -2.32323,11.45023c-0.04705,0.66211 0.14579,1.07756 0.66378,1.16162c0.32761,0.05316 1.95272,-0.65714 4.48053,-2.65513c3.68689,-2.91414 7.08931,-6.40002 10.28861,-8.79511c1.25325,-0.93821 1.5403,-0.83474 1.65946,0.49784c0.54762,6.12451 0.21964,10.90066 1.4935,13.60752c0.82405,1.75103 2.69961,2.66398 3.98269,2.32324c2.58616,-0.68679 7.5919,-4.88347 17.75616,-10.78645c5.78471,-3.35951 8.79511,-5.14431 10.45456,-5.97404l0,0l0,-0.16594" id="svg_5" fill="none"/>
  <path transform="rotate(-0.245753 64.0005 103.193)" stroke="url(#svg_8)" stroke-width="6" stroke-linecap="round" stroke-linejoin="round" d="m26.41385,104.90755c0,0.16594 0.16594,0.16594 0.16594,0.16594c0.66378,0 2.2953,-1.18632 4.64647,-3.81674c3.44431,-3.85337 7.80971,-7.78811 11.28429,-10.9524c1.99727,-1.81891 2.18208,-2.07859 2.32324,-1.99134c0.31564,0.19508 0.74635,0.98336 0.82972,1.8254c0.24528,2.47706 -0.51387,4.52257 -1.32756,7.13565c-0.84308,2.70745 -1.54304,5.32461 -1.8254,7.13565c-0.23568,1.51168 -0.44923,2.03995 -0.33189,2.15729c0.23468,0.23469 0.5528,0.06183 1.49351,-0.82972c2.30111,-2.18088 5.01896,-4.93599 7.96538,-7.79944c1.85128,-1.79914 2.39255,-1.95012 1.4935,2.48918c-1.05454,5.20714 -2.15687,9.10932 -2.32323,11.45024c-0.04705,0.66211 0.14579,1.07756 0.66378,1.16161c0.32761,0.05317 1.95272,-0.65713 4.48053,-2.65512c3.68689,-2.91414 7.08931,-6.40003 10.28861,-8.79511c1.25325,-0.93821 1.5403,-0.83474 1.65946,0.49784c0.54762,6.12451 0.21964,10.90066 1.4935,13.60752c0.82405,1.75103 2.69961,2.66398 3.98269,2.32324c2.58616,-0.68679 7.5919,-4.88347 17.75616,-10.78646c5.78471,-3.35951 8.79511,-5.1443 10.45456,-5.97403l0,0l0,-0.16595" id="svg_6" fill="none"/>
  <path transform="rotate(-0.245753 64.0005 27.955)" stroke="url(#svg_7)" stroke-width="6" stroke-linecap="round" stroke-linejoin="round" d="m26.41384,29.66945c0,0.16595 0.16595,0.16595 0.16595,0.16595c0.66378,0 2.2953,-1.18633 4.64647,-3.81674c3.44431,-3.85337 7.80971,-7.78811 11.28429,-10.9524c1.99727,-1.81891 2.18207,-2.07859 2.32324,-1.99134c0.31565,0.19508 0.74635,0.98336 0.82973,1.8254c0.24528,2.47707 -0.51387,4.52257 -1.32756,7.13565c-0.84308,2.70745 -1.54304,5.32461 -1.8254,7.13565c-0.23569,1.51168 -0.44923,2.03995 -0.33189,2.15729c0.23468,0.23468 0.5528,0.06183 1.49351,-0.82973c2.30111,-2.18087 5.01896,-4.93599 7.96538,-7.79943c1.85128,-1.79914 2.39255,-1.95013 1.49351,2.48918c-1.05454,5.20713 -2.15687,9.10932 -2.32323,11.45023c-0.04705,0.66211 0.14579,1.07756 0.66378,1.16162c0.32761,0.05316 1.95272,-0.65713 4.48052,-2.65513c3.68689,-2.91414 7.08931,-6.40002 10.28862,-8.79511c1.25325,-0.93821 1.5403,-0.83474 1.65945,0.49784c0.54763,6.12451 0.21965,10.90066 1.49351,13.60752c0.82404,1.75103 2.6996,2.66398 3.98269,2.32324c2.58615,-0.68679 7.59189,-4.88347 17.75616,-10.78645c5.7847,-3.35951 8.79511,-5.14431 10.45456,-5.97403l0,0l0,-0.16595" id="svg_2" fill="none"/>
 </g>
</svg>